<?xml version="1.0" encoding="UTF-8" standalone="no"?>
<!-- Created with Pixodesk SVG (https://pixodesk.com) -->
<svg xmlns="http://www.w3.org/2000/svg" viewBox="0 0 641 847" text-rendering="geometricPrecision" shape-rendering="geometricPrecision">
  <path class="a" fill="#3f4042" d="M73,10C51.7,10.7,51.4,10.7,46.1,13.6C43.2,15.2,38.4,19,35.5,22C32.6,25,29,30,27.6,33C25.4,37.7,24.9,40.7,24,53.5C23.5,61.8,23,108.2,23,156.8C23,211.7,23.4,246.9,24,250C24.8,254,25.6,255.4,28.2,257C30,258.1,34,259.5,37,260.2C40,260.8,43.7,261.9,45.2,262.7C46.8,263.4,48.8,265.5,49.7,267.2C51.3,270.2,51.5,274.5,51.5,314.5C51.5,338.7,51.2,360.2,50.7,362.3C50.3,364.5,49.1,366.6,47.7,367.4C46.5,368.2,42.1,369.3,38,369.9C33.9,370.5,29.5,371.7,28.2,372.5C27,373.3,25.4,375.2,24.8,376.8C23.8,378.9,23.5,421.7,23.5,578.5C23.5,737.1,23.8,779.4,24.8,787C25.7,793.5,27,798.1,28.8,801.5C30.3,804.3,35.1,810.1,39.5,814.6C45.3,820.5,49.3,823.6,54,825.8C57.6,827.5,63.2,829.7,66.5,830.7C72.2,832.3,84.8,832.5,291.5,832.8C443.4,833.1,519.7,832.8,540.5,832C557,831.4,573,830.5,576,830C579.1,829.5,584.5,827.5,588.5,825.3C592.5,823.1,598.5,818.5,602.6,814.5C608,809.2,610.7,805.4,613.9,799L618.1,790.5C619,476.6,618.9,381.4,618.5,376.5C617.9,369.3,617.3,367.1,615.6,365.4C614.4,364.3,611,362.8,608,362.1C605,361.4,600.5,360.4,598.1,359.7C595.4,359,593.1,357.6,592.1,356C590.8,354.1,590.4,349.8,590.2,334C590,319.5,590.2,313.7,591.2,311.6C592,309.7,594,308,596.5,306.8C598.7,305.9,602.2,305,604.2,305C606.3,305,609.6,304.3,611.5,303.5C613.5,302.6,615.7,300.6,616.7,298.8C618.2,295.8,618.4,289.2,618.4,224L618.5,152.5C615,145.5,606.9,135.8,598.2,126.4C589.6,117,564.2,90.2,541.9,66.9C519.6,43.6,498.5,22.1,494.9,19.1C491.4,16.1,486.5,12.7,484,11.6L479.5,9.5C181.1,9.4,84.8,9.6,73,10z"/>
  <path class="b" fill="#f7f7f9" opacity="0.99" d="M75.5,832.7C77.7,832.9,81.5,832.9,84,832.7C86.5,832.5,84.7,832.3,80,832.3C75.3,832.3,73.3,832.5,75.5,832.7zM97.2,66.2C96.6,67,96.1,83.8,95.9,111.2C95.6,146.1,95.8,155.2,96.8,156.2C97.8,157.2,103.6,157.6,119.3,157.8C136.7,158,140.9,157.8,142.5,156.6C144.5,155.2,144.5,154.2,144.1,110.8C143.9,79.5,143.4,66.3,142.6,65.8C142,65.4,131.8,65,119.9,65C103.7,65,98,65.3,97.2,66.2zM204,66.2C202.8,67.2,202.6,74.7,202.8,111.2L203,155C207.1,157.7,211.3,158,227.5,158C243.3,158,247.9,157.7,249.5,156.6C251.5,155.2,251.5,154.2,251.2,111.3C250.9,71.7,250.7,67.4,249.2,66.2C247.9,65.3,241.9,65,226.4,65C211.5,65,205,65.4,204,66.2zM311.4,65.8C310.6,66.3,310.2,78.8,310,109C309.8,132.4,309.8,152.5,309.8,153.7C310,155.4,310.9,156.3,313.2,157C315,157.6,325.2,158,335.7,158C354.4,158,355.1,157.9,357.2,155.7L359.4,153.5C358.1,77.5,357.6,66.3,356.7,65.8C356,65.4,345.8,65,334,65C322.2,65,312,65.4,311.4,65.8zM417.9,66.9C417.2,68.3,416.8,81.7,416.9,111.2C417,146.3,417.2,153.8,418.4,155.5C419.8,157.4,421,157.5,442,157.5C460.5,157.5,464.2,157.3,465,156C465.6,155.1,466,136.6,466,110.7C466,68,466,67,464,66C462.9,65.4,452.8,65,440.5,65C420.4,65,419,65.1,417.9,66.9zM300.4,214.7C300.7,215.7,301.6,220.8,302.5,226C303.3,231.2,304,240.2,304,246C304,253.4,303.4,259,301.9,265C300.7,269.7,298.1,277.1,296.1,281.5C294.1,285.9,289.6,293.5,286.3,298.5C282.9,303.4,271,318.1,259.9,331C248.8,343.9,237,357.9,233.7,362C230.4,366.1,224.8,373.8,221.4,379C218,384.2,213.1,392.8,210.6,398C208.1,403.2,205,411.8,203.7,417C202.3,422.2,200.9,430.3,200.6,435C200.2,439.9,200.4,447.5,201,453C201.7,458.2,203.3,466.3,204.7,471C206,475.7,209.3,484,211.9,489.5C214.6,495,219.4,503.1,222.7,507.5C226,511.9,231.6,518.1,235.1,521.3C238.6,524.5,244.4,529.1,248,531.4C251.6,533.8,261,539.2,269,543.3C277,547.4,286.6,551.8,290.5,553.1C296,554.8,300.7,555.4,313,555.8C324.4,556.1,331.2,555.8,338.7,554.6C344.4,553.7,353.4,551.6,358.7,549.9C364.1,548.2,371.4,545.3,375,543.5C378.6,541.7,385.8,537.4,391,533.9C396.2,530.4,403.3,524.7,406.7,521.2C410.2,517.8,415.8,511.3,419.1,506.7C422.5,502.2,427,495,429.1,490.7C431.3,486.5,434.3,479.1,436,474.2C437.6,469.4,439.6,461.4,440.5,456.5C441.3,451.5,442,442.3,442,436C442,429.7,441.3,420.2,440.5,415C439.7,409.8,437.5,400.1,435.6,393.5C433.7,386.9,430.7,378.1,429,374C427.3,369.9,423.9,363.8,421.4,360.5L417,354.5C415.1,359.9,412.7,365.3,410.5,370C408.2,374.7,404.9,379.7,403.2,381.2C401.4,382.8,398.3,384.3,396.2,384.6C394.2,385,390,385.1,386.9,384.9C383.1,384.6,380.5,383.9,379,382.5C377.7,381.4,375.8,378.5,374.6,376C372.7,371.9,372.5,369,371.9,340C371.4,312.4,371,307.3,369.1,299C367.9,293.8,365.3,285.7,363.3,281C361.4,276.3,358.7,270.2,357.3,267.5C355.9,264.7,352.6,259.6,350,256C347.4,252.4,340.1,244.5,333.8,238.5C327.6,232.4,320.5,225.8,318,223.8C315.5,221.8,310.8,218.5,307.5,216.6C304.2,214.6,301.1,213,300.7,213C300.2,213,300.1,213.8,300.4,214.7zM410,589C406.4,589.5,401.3,590.3,398.5,591C395.8,591.6,389.7,594,385,596.2C378.5,599.4,374.8,602,369.5,607.4C365.1,611.8,361.1,617.2,358.8,621.5C356.8,625.3,354.1,632.1,352.8,636.5C350.7,643.7,350.5,646.5,350.5,665C350.5,681.6,350.8,686.7,352.3,692C353.3,695.6,355.7,701.9,357.7,706C360.4,711.7,363.2,715.5,369.4,721.6C375.5,727.7,379.4,730.6,385,733.3C389.1,735.3,395.2,737.7,398.5,738.6C401.8,739.4,409,740.4,414.5,740.7C421.7,741.1,427.1,740.8,433.5,739.6C439.7,738.4,445.5,736.5,452,733.3C459.6,729.6,462.9,727.2,468.5,721.6C472.9,717.2,476.9,711.8,479.2,707.5C481.2,703.6,483.9,696.9,485.2,692.5C487.2,685.4,487.5,682.3,487.5,665C487.5,649.1,487.2,644.2,485.6,638.5C484.6,634.6,482.3,628.3,480.5,624.5C478.8,620.6,475.4,615.1,473.2,612.2C470.9,609.4,466.2,604.9,462.8,602.4C459.3,599.8,453.8,596.5,450.5,595C447.2,593.5,441.1,591.5,437,590.7C432.9,589.8,426.6,588.9,423,588.7C419.4,588.4,413.6,588.6,410,589zM259.5,589.7C257.9,589.9,253.8,590.8,250.5,591.7C247.2,592.5,241.8,594.6,238.5,596.3C235.2,597.9,230.5,601.2,228,603.5C225.4,606,222.3,610.4,220.5,614.1C217.7,620.2,217.5,621.1,217.5,633C217.6,643.5,217.9,646.2,219.7,650C220.8,652.5,223.2,656.4,224.9,658.7C226.6,661.1,230.8,664.8,234.3,667C237.7,669.3,243,672,246,673.1C249,674.3,259.5,677.2,269.3,679.6C279,682,288.9,684.8,291.2,685.7C293.5,686.7,296.4,688.7,297.7,690.2C299.5,692.4,300,694.2,300,698.2C299.9,701.6,299.3,704.6,298.1,706.5C297,708.1,294.4,710.5,292.3,711.7C290.2,712.9,285.1,714.4,281,715C275.9,715.7,271.1,715.7,266,715C261.2,714.4,257,713.1,254.3,711.5C251.7,710,249.2,707.5,248.1,705.2C247.1,703.2,246,700,245.6,698.2L245,695C214.1,695,214,695,214,697.2C214,698.5,214.7,702.1,215.5,705.2C216.3,708.4,218.1,713.1,219.4,715.7C220.7,718.4,224.3,722.9,227.4,725.7C230.5,728.6,235.8,732.3,239.3,734C242.7,735.6,248.4,737.7,252,738.7C256.8,740,262.1,740.4,272.5,740.4C281.8,740.3,289,739.7,294,738.6C298.1,737.7,304.2,735.7,307.5,734.2C310.8,732.6,315.5,729.6,318,727.3C320.5,725.1,323.7,721.1,325.2,718.4C326.6,715.7,328.6,710.8,329.5,707.5C330.8,703.1,331.1,699,330.8,692C330.5,684.6,329.9,681.3,327.9,677C326.5,674,323.6,669.7,321.4,667.6C319.3,665.5,314.4,662.2,310.5,660.4C306.5,658.5,294.4,654.7,282.3,651.5C270.6,648.5,258.9,644.9,256.3,643.6C253.6,642.4,250.5,640,249.2,638.4C247.7,636.5,246.9,634.2,247,631.7C247,629.7,247.5,627,248.1,625.7C248.7,624.5,250.4,622.3,251.9,620.7C253.3,619.2,256.8,617.2,259.5,616.3C262.6,615.2,267.7,614.6,273,614.6C280.4,614.6,282.3,614.9,287.5,617.5C292.9,620.2,293.8,621.1,296.5,626.7L299.5,632.9C327.6,633,329,632.8,329,631.2C329,630.3,328.3,626.8,327.4,623.5C326.6,620.2,324.4,614.9,322.7,611.6C320.9,608.4,317.5,603.9,315,601.7C312.5,599.4,307.8,596.3,304.5,594.8C301.2,593.3,295.4,591.3,291.5,590.5C287.4,589.6,280,589.1,273.5,589.2C267.4,589.2,261.1,589.5,259.5,589.7zM165.7,591.7L160,592L160.5,736.5C179.1,736.2,185.7,736.1,187.3,736.1L190,736L190,592C175.7,591.6,168.9,591.6,165.7,591.7z"/>
  <path class="a" fill="#3f4042" d="M339.7,352.8C333.8,359.8,317.5,381,303.4,400C289.3,419,275.1,438.5,271.8,443.5C268.6,448.4,265.9,453.3,266,454.2C266,455.4,267.2667,456.3,269.8,456.9C271.8,457.5,280.3,458.2,288.5,458.6C296.8,459,304.3,459.7,305.3,460.1C306.6,460.8,307,462.2,307,466C307,469.1,303.7,483.7,298.4,503.7C293.7,521.8,290,536.9,290.2,537.4C290.4,537.8,293.6,534.9,297.5,530.9C301.4,526.8,313.3,512.7,324,499.5C334.8,486.3,348.3,469.5,354,462.2C359.8,454.9,366.8,445.5,369.7,441.2C372.7,436.6,374.5,432.9,374.2,432.1C373.8,431.3,372.6,430.4,371.5,429.9C370.4,429.5,363.2,428.9,355.5,428.5C347.8,428.1,339.9,427.4,338,427C336.1,426.5,333.8,425.4,333,424.4C332.1,423.4,331.6,421.1,331.7,418.6C331.9,416.3,334,407.1,336.6,398C339.1,388.9,342.9,375.4,345,368C347.1,360.6,349.3,351.8,350,348.5C350.7,345.2,351,342,350.8,341.3C350.5,340.6,345.5,345.8,339.7,352.8zM406.5,617.4C404.3,618,400.9,619.5,399,620.7C397.1,621.9,393.7,624.8,391.6,627.1C389.4,629.5,386.6,633.7,385.4,636.5C384.2,639.2,382.8,643.7,382.2,646.5C381.6,649.2,380.8,655.3,380.5,660C380.1,664.9,380.3,671.9,380.9,676.5C381.5,680.9,383,687.4,384.2,691C385.9,696.2,387.5,698.7,392.4,703.6C397.8,709,399.4,710,406,712C412,713.8,415.1,714.2,421.5,713.8C427.2,713.5,431.1,712.6,435,710.9C438,709.5,442.3,706.8,444.5,704.8C446.7,702.9,449.7,699.1,451.2,696.4C452.7,693.7,454.6,688.6,455.4,685C456.4,680.9,457,673.8,457,666C457,659.1,456.4,650.6,455.6,647C454.9,643.4,453.2,638.5,452,636C450.7,633.5,448.5,630,447.1,628.2C445.7,626.3,442.5,623.5,440,622C437.5,620.4,433,618.5,430,617.6C427,616.7,421.4,616,417.5,616.1C413.6,616.1,408.7,616.7,406.5,617.4z"/>
</svg>