<?xml version="1.0" encoding="UTF-8" standalone="no"?>
<!-- Created with Pixodesk SVG (https://pixodesk.com) -->
<svg xmlns="http://www.w3.org/2000/svg" viewBox="0 0 641 847" text-rendering="geometricPrecision" shape-rendering="geometricPrecision">
  <g data-px-label="Basic Card" transform="translate(320.897, 421.1943)translate(-320.897, -421.1943)" style="pointer-events:none">
    <path class="a" fill="#3f4042" d="M73,10C40.7097,9.8065,22.075,31.3881,22.0453,54.1232C22.0156,76.8583,22.0579,229.6443,22.0453,248.162C21.9099,261.4932,22.8564,261.3535,35.2405,261.6481C51.6635,261.5907,51.061,260.8269,51.2888,277.8316C51.3492,282.3419,51.1997,335.9274,51.2888,352.8799C51.3779,369.8324,47.5709,369.2833,33.1344,369.0454C18.6979,368.8075,20.3599,374.748,20.3395,382.9119C20.2868,404.0062,24.5828,755.5338,24.8,787C25.0172,818.4662,26.2812,830.8568,66.5,830.7C106.7188,830.5432,541.9487,830.276,576,830C610.0513,829.724,617.4849,829.1098,618.4,790.5C619.3151,751.8902,618.56,385.1939,618.5,376.5C618.44,367.8061,592.9536,375.9103,592.6751,364.5201C592.3965,353.1299,592.0009,323.8095,592.1,311.6C592.1991,299.3905,618.4285,305.7378,618.4,298.8C618.3715,291.8622,619.4598,191.5447,619.6191,179.4334C619.6019,154.4005,611.073,145.7874,598.0125,133.7276C591.7638,127.9578,528.4129,55.9667,502.65,31.0808C476.8871,6.1949,488.7859,7.8093,447.9707,8.6712C401.236,7.9761,84.7998,9.6,73,10z" style="pointer-events:none"/>
  </g>
  <g data-px-label="ISO" transform="translate(418.646, 665.0161)translate(-418.646, -665.0161)" style="pointer-events:none">
    <path data-px-label="ISO" class="b" fill="#f7f7f9" opacity="0.99" d="M410,589C406.4,589.5,401.3,590.3,398.5,591C395.8001,591.6,389.6999,594,385,596.2C378.5,599.3999,374.8,602.0001,369.5,607.4C365.1001,611.7999,361.1,617.2001,358.8,621.5C356.8,625.2999,354.1,632.1001,352.8,636.5C350.7,643.7,350.5,646.5,350.5,665C350.5,681.6,350.8,686.7001,352.3,692C353.3,695.6,355.7,701.9,357.7,706C360.3999,711.7,363.2001,715.5,369.4,721.6C375.5,727.7,379.4,730.6001,385,733.3C389.1,735.3,395.2,737.7001,398.5,738.6C401.8,739.3999,409,740.4,414.5,740.7C421.6999,741.0999,427.1001,740.7999,433.5,739.6C439.6999,738.4,445.5,736.5,452,733.3C459.6,729.6001,462.9,727.2,468.5,721.6C472.8999,717.2001,476.9,711.7999,479.2,707.5C481.2,703.6001,483.9,696.8999,485.2,692.5C487.2,685.4,487.5,682.2999,487.5,665C487.5,649.1001,487.1999,644.2,485.6,638.5C484.6,634.6001,482.3,628.2999,480.5,624.5C478.8001,620.6001,475.3999,615.0999,473.2,612.2C470.9,609.4,466.1999,604.9,462.8,602.4C459.3,599.8,453.8,596.5,450.5,595C447.2,593.5,441.1,591.4999,437,590.7C432.9,589.8,426.6,588.8999,423,588.7C419.4,588.4,413.6,588.6001,410,589zM259.5,589.7C257.9,589.8999,253.8,590.8,250.5,591.7C247.2,592.4999,241.8,594.6001,238.5,596.3C235.2,597.9,230.5,601.2001,228,603.5C225.4001,606,222.3,610.4,220.5,614.1C217.7,620.2,217.5,621.1001,217.5,633C217.5999,643.5,217.9001,646.2001,219.7,650C220.8,652.5,223.2,656.4,224.9,658.7C226.5999,661.0999,230.8,664.8,234.3,667C237.6999,669.2999,243,672,246,673.1C249,674.2999,259.5,677.2001,269.3,679.6C278.9999,681.9999,288.9,684.8,291.2,685.7C293.5,686.7,296.4,688.7,297.7,690.2C299.5,692.3999,300,694.2,300,698.2C299.9,701.5999,299.2999,704.6001,298.1,706.5C297,708.1,294.3999,710.5,292.3,711.7C290.2,712.8999,285.1,714.4,281,715C275.9,715.7,271.1,715.7,266,715C261.2,714.4,256.9999,713.1,254.3,711.5C251.7,710,249.1999,707.4999,248.1,705.2C247.1,703.2,246,699.9999,245.6,698.2L245,695C214.1,695,214,695,214,697.2C214,698.4999,214.7,702.1,215.5,705.2C216.3,708.3999,218.1,713.1,219.4,715.7C220.6999,718.3999,224.3001,722.9,227.4,725.7C230.4999,728.5999,235.8,732.3,239.3,734C242.6999,735.6,248.4001,737.7,252,738.7C256.8,739.9999,262.1001,740.4,272.5,740.4C281.8,740.3,289,739.7,294,738.6C298.1,737.7001,304.2,735.7,307.5,734.2C310.8,732.6,315.5,729.6,318,727.3C320.5,725.1001,323.7,721.1,325.2,718.4C326.6,715.7001,328.6001,710.7999,329.5,707.5C330.8,703.1001,331.1,699,330.8,692C330.5,684.6001,329.9,681.2999,327.9,677C326.5001,674,323.6,669.7,321.4,667.6C319.3001,665.5,314.3999,662.2,310.5,660.4C306.5,658.5001,294.3999,654.7,282.3,651.5C270.6001,648.5,258.8999,644.8999,256.3,643.6C253.6,642.4,250.5,640,249.2,638.4C247.7,636.5001,246.9001,634.2,247,631.7C247,629.7,247.5001,626.9999,248.1,625.7C248.6999,624.5,250.4,622.2999,251.9,620.7C253.3,619.2,256.8001,617.2,259.5,616.3C262.6,615.2001,267.7,614.6,273,614.6C280.3999,614.6,282.3001,614.9,287.5,617.5C292.8999,620.2,293.8001,621.1,296.5,626.7L299.5,632.9C327.6,633,329,632.7999,329,631.2C329,630.3,328.3,626.7999,327.4,623.5C326.6001,620.2001,324.3999,614.8999,322.7,611.6C320.9,608.4,317.5,603.8999,315,601.7C312.5,599.4,307.8,596.3,304.5,594.8C301.2,593.3,295.3999,591.2999,291.5,590.5C287.4,589.6001,280,589.1,273.5,589.2C267.4,589.2,261.1,589.5,259.5,589.7zM165.7,591.7L160,592L160.5,736.5C179.0999,736.2001,185.7,736.1,187.3,736.1L190,736L190,592C175.7,591.6001,168.9,591.6,165.7,591.7z" style="pointer-events:none"/>
    <path data-px-label="O" class="a" fill="#3f4042" d="M406.5,617.4C404.3001,618,400.8999,619.5,399,620.7C397.1001,621.8999,393.6999,624.8,391.6,627.1C389.4,629.4999,386.6,633.7001,385.4,636.5C384.2001,639.2,382.8,643.7001,382.2,646.5C381.6001,649.2,380.8,655.3,380.5,660C380.1001,664.8999,380.3001,671.9,380.9,676.5C381.5,680.8999,383.0001,687.4,384.2,691C385.8999,696.2,387.5001,698.7001,392.4,703.6C397.8,708.9999,399.4,710,406,712C412,713.7999,415.1001,714.2,421.5,713.8C427.1999,713.5001,431.1001,712.6,435,710.9C438,709.5001,442.3001,706.8,444.5,704.8C446.6999,702.9001,449.7,699.1,451.2,696.4C452.7,693.7001,454.6001,688.6,455.4,685C456.4,680.9,457,673.7999,457,666C457,659.1001,456.3999,650.6,455.6,647C454.9,643.4,453.1999,638.5,452,636C450.7,633.5,448.4999,629.9999,447.1,628.2C445.7,626.3,442.5,623.5,440,622C437.5,620.4,433,618.4999,430,617.6C427,616.7001,421.3999,616,417.5,616.1C413.6001,616.1,408.6999,616.7001,406.5,617.4z" style="pointer-events:none"/>
  </g>
  <path data-px-label="4 Box" class="b" fill="#f7f7f9" opacity="0.99" d="M97.2,66.2C96.6,66.9999,96.0999,83.8,95.9,111.2C95.6,146.0999,95.8,155.2,96.8,156.2C97.8,157.2,103.6,157.6,119.3,157.8C136.6999,157.9999,140.9001,157.8,142.5,156.6C144.5,155.2,144.5,154.1999,144.1,110.8C143.9001,79.5,143.4,66.3,142.6,65.8C142.0001,65.4001,131.8,65,119.9,65C103.7,65,97.9999,65.3,97.2,66.2zM204,66.2C202.8001,67.2,202.6,74.7,202.8,111.2L203,155C207.0999,157.6999,211.3001,158,227.5,158C243.3,158,247.9001,157.6999,249.5,156.6C251.5,155.2,251.5,154.1999,251.2,111.3C250.9001,71.7001,250.7,67.4,249.2,66.2C247.9001,65.3,241.9,65,226.4,65C211.5,65,205,65.4001,204,66.2zM311.4,65.8C310.6001,66.3,310.1999,78.8,310,109C309.8001,132.4,309.8,152.5001,309.8,153.7C309.9999,155.4,310.9,156.3001,313.2,157C315,157.5999,325.2,158,335.7,158C354.3999,158,355.1001,157.9,357.2,155.7L359.4,153.5C358.1001,77.5,357.6,66.3,356.7,65.8C356.0001,65.4001,345.8,65,334,65C322.2,65,312,65.4001,311.4,65.8zM417.9,66.9C417.2001,68.2999,416.8001,81.7,416.9,111.2C417,146.3,417.2001,153.8001,418.4,155.5C419.8,157.4,421,157.5,442,157.5C460.5,157.5,464.2,157.3,465,156C465.6,155.1,466,136.5999,466,110.7C466,68,466,67,464,66C462.9,65.4001,452.8,65,440.5,65C420.4,65,419,65.1,417.9,66.9z" style="pointer-events:none"/>
  <g data-px-label="Fire" transform="translate(321.196, 384.4541)translate(-321.196, -384.4541)">
    <path data-px-label="Fire" class="b" fill="#f7f7f9" opacity="0.99" d="M300.4,214.7C300.7,215.7,301.6001,220.8001,302.5,226C303.3,231.1999,304,240.2,304,246C304,253.4,303.4,259,301.9,265C300.7001,269.6999,298.1,277.1001,296.1,281.5C294.1,285.8999,289.6,293.5,286.3,298.5C282.9,303.3999,271,318.1001,259.9,331C248.8001,343.8999,237,357.9,233.7,362C230.4001,366.1,224.8,373.8001,221.4,379C218,384.1999,213.1,392.8001,210.6,398C208.1,403.1999,205,411.8001,203.7,417C202.3001,422.1999,200.9,430.3001,200.6,435C200.2,439.8999,200.4001,447.5,201,453C201.6999,458.1999,203.3001,466.3001,204.7,471C206,475.6999,209.3001,484,211.9,489.5C214.5999,495,219.4001,503.1001,222.7,507.5C226,511.8999,231.6,518.1001,235.1,521.3C238.6,524.5,244.4001,529.1001,248,531.4C251.5999,533.7999,261,539.2001,269,543.3C277,547.4,286.6001,551.8,290.5,553.1C296,554.7999,300.7,555.4001,313,555.8C324.3999,556.1,331.2,555.7999,338.7,554.6C344.3999,553.7001,353.4,551.6,358.7,549.9C364.1,548.2001,371.4,545.2999,375,543.5C378.6,541.7001,385.8001,537.4,391,533.9C396.1999,530.4,403.3001,524.7,406.7,521.2C410.2,517.8,415.8,511.3,419.1,506.7C422.4999,502.2,427,495,429.1,490.7C431.2999,486.5001,434.3001,479.1,436,474.2C437.6,469.4,439.6001,461.3999,440.5,456.5C441.3,451.5,442,442.3,442,436C442,429.7,441.3,420.1999,440.5,415C439.7,409.8001,437.4999,400.1,435.6,393.5C433.7,386.9,430.6999,378.1,429,374C427.3001,369.9,423.9,363.8,421.4,360.5L417,354.5C415.1001,359.8999,412.6999,365.3001,410.5,370C408.2,374.6999,404.8999,379.7,403.2,381.2C401.4,382.8,398.3,384.3,396.2,384.6C394.2,384.9999,390,385.1,386.9,384.9C383.1001,384.6001,380.5,383.8999,379,382.5C377.7,381.4,375.7999,378.5,374.6,376C372.7,371.9,372.5,369,371.9,340C371.4,312.4,370.9999,307.3,369.1,299C367.9,293.8001,365.3,285.6999,363.3,281C361.4,276.3001,358.6999,270.1999,357.3,267.5C355.9,264.7,352.6,259.6,350,256C347.4,252.4001,340.1,244.5,333.8,238.5C327.6001,232.4001,320.5,225.8,318,223.8C315.5,221.8,310.8,218.5,307.5,216.6C304.2,214.6,301.1,213,300.7,213C300.2,213,300.1001,213.8001,300.4,214.7z" style="pointer-events:none"/>
    <path data-px-label="Flash" class="a" fill="#3f4042" d="M339.7,352.8C333.8,359.8,317.5,381,303.4,400C289.3,419,275.1,438.5,271.8,443.5C268.6,448.4,265.9,453.3,266,454.2C266,455.4,267.2667,456.3,269.8,456.9C271.8,457.5,280.3,458.2,288.5,458.6C296.8,459,304.3,459.7,305.3,460.1C306.6,460.8,307,462.2,307,466C307,469.1,303.7,483.7,298.4,503.7C293.7,521.8,290,536.9,290.2,537.4C290.4,537.8,293.6,534.9,297.5,530.9C301.4,526.8,313.3,512.7,324,499.5C334.8,486.3,348.3,469.5,354,462.2C359.8,454.9,366.8,445.5,369.7,441.2C372.7,436.6,374.5,432.9,374.2,432.1C373.8,431.3,372.6,430.4,371.5,429.9C370.4,429.5,363.2,428.9,355.5,428.5C347.8,428.1,339.9,427.4,338,427C336.1,426.5,333.8,425.4,333,424.4C332.1,423.4,331.6,421.1,331.7,418.6C331.9,416.3,334,407.1,336.6,398C339.1,388.9,342.9,375.4,345,368C347.1,360.6,349.3,351.8,350,348.5C350.7,345.2,351,342,350.8,341.3C350.5,340.6,345.5,345.8,339.7,352.8z" style="pointer-events:none"/>
  </g>
</svg>