<svg width="512" height="512" viewBox="0 0 512 512" xmlns="http://www.w3.org/2000/svg" fill="none">
  <!-- SD card shape -->
  <path fill="#333"
    d="M128 32h256l64 64v384a32 32 0 0 1-32 32H128a32 32 0 0 1-32-32V64a32 32 0 0 1 32-32zM160 96v48h32V96h-32zm48 0v48h32V96h-32zm48 0v48h32V96h-32zm48 0v48h32V96h-32zm48 0v48h32V96h-32z" />

  <!-- Flame with lightning bolt -->
  <path fill="#fff"
    d="M256 180c28 36 28 55 8 76-9 9-20 13-32 13-13 0-23-4-32-13-25-24-11-55 17-83 4 4 8 9 12 14 3-7 8-13 14-20l13 13zm-8 30-13 22h20l-7 24 13-22h-20l7-24z"/>

  <!-- ISO text -->
  <text x="50%" y="400" fill="#fff" font-family="Arial, Helvetica, sans-serif"
        font-size="64" font-weight="bold" text-anchor="middle">
    ISO
  </text>
</svg>
